<?xml version="1.0" encoding="utf-8"?>
<!-- Generator: Adobe Illustrator 24.2.1, SVG Export Plug-In . SVG Version: 6.00 Build 0)  -->
<svg version="1.1" id="Layer_1" xmlns="http://www.w3.org/2000/svg" xmlns:xlink="http://www.w3.org/1999/xlink" x="0px" y="0px"
	 viewBox="0 0 1080 1080" style="enable-background:new 0 0 1080 1080;" xml:space="preserve">
<style type="text/css">
	.st0{fill:#D8BCA9;stroke:#D8BCA9;stroke-miterlimit:10;}
	.st1{fill:#D7B69E;stroke:#D7B69E;stroke-miterlimit:10;}
	.st2{fill:none;}
	.st3{fill:#965A43;}
	.st4{fill:#D0A592;}
	.st5{fill:#CC9884;}
	.st6{fill:#C58272;}
	.st7{fill:#CC8D7C;}
	.st8{fill:#CE9E89;}
	.st9{fill:#E2C7BD;}
	.st10{fill:#CFA887;}
	.st11{fill:#D7B69E;}
	.st12{fill:#C9A37F;}
	.st13{fill:#C9A37F;stroke:#C9A37F;stroke-width:2;stroke-miterlimit:10;}
	.st14{fill:#B6936E;}
	.st15{fill:#B68C70;stroke:#B68C70;stroke-miterlimit:10;}
	.st16{fill:#A8845D;}
	.st17{fill:#100C09;}
	.st18{fill:#382815;stroke:#382815;stroke-miterlimit:10;}
	.st19{fill:#D1A389;}
	.st20{fill:#C99E7A;}
	.st21{fill:#BF9679;}
	.st22{fill:#C9A68F;}
	.st23{fill:#DCBEA9;}
	.st24{fill:#BB8F6E;}
	.st25{fill:#5A5F35;stroke:#5A5F35;stroke-miterlimit:10;}
	.st26{fill:#B99575;stroke:#B99575;stroke-miterlimit:10;}
	.st27{fill:#B68C70;}
	.st28{fill:#CBA48A;stroke:#CBA48A;stroke-miterlimit:10;}
	.st29{fill:#BF9679;stroke:#BF9679;stroke-miterlimit:10;}
	.st30{fill:#BF9874;stroke:#BF9874;stroke-miterlimit:10;}
	.st31{fill:#9C7450;}
	.st32{fill:#C99E7A;stroke:#C99E7A;stroke-width:2;stroke-miterlimit:10;}
	.st33{fill:#CBA48A;}
	.st34{fill:#A57C59;}
	.st35{fill:#130C0A;}
	.st36{fill:#80512C;}
	.st37{fill:#C0B7B1;}
	.st38{fill:#77673F;}
	.st39{fill:#0B0804;}
	.st40{fill:#F3E5E4;}
	.st41{fill:#A57C59;stroke:#A57C59;stroke-miterlimit:10;}
	.st42{fill:#D1B5A2;}
	.st43{fill:#BF9874;}
	.st44{fill:#CBA48A;stroke:#CBA48A;stroke-width:2;stroke-miterlimit:10;}
	.st45{fill:#150F0A;stroke:#150F0A;stroke-miterlimit:10;}
	.st46{fill:#150F0A;}
	.st47{fill:#301F12;stroke:#301F12;stroke-width:2.3894;stroke-miterlimit:10;}
	.st48{fill:#C99E7A;stroke:#C99E7A;stroke-width:0.7965;stroke-miterlimit:10;}
	.st49{fill:#2A1708;stroke:#2A1708;stroke-width:0.7965;stroke-miterlimit:10;}
	.st50{fill:#5D371A;}
	.st51{fill:#976E4E;stroke:#976E4E;stroke-miterlimit:10;}
	.st52{fill:#301F12;}
	.st53{fill:#1C160F;stroke:#1C160F;stroke-width:2;stroke-miterlimit:10;}
	.st54{fill:#382815;}
	.st55{fill:#DCBEA9;stroke:#DCBEA9;stroke-miterlimit:10;}
	.st56{fill:#CFA887;stroke:#CFA887;stroke-miterlimit:10;}
	.st57{fill:#5D371A;stroke:#5D371A;stroke-miterlimit:10;}
	.st58{fill:#A86C52;}
	.st59{fill:#301F12;stroke:#301F12;stroke-miterlimit:10;}
	.st60{fill:#444728;stroke:#444728;stroke-width:2;stroke-miterlimit:10;}
	.st61{fill:#301F12;stroke:#301F12;stroke-width:2;stroke-miterlimit:10;}
</style>
<path class="st0" d="M498.9,451.1c0,0,6,6.1,29.9,6.5c0,0,13.3-1.1,25.5,16c0,0-10.4,14.8-19.4,14.9l-6.4,5.8c0,0-9.6,2.3-14.4,1.6
	c-4.8-0.8-6.3-1.8-11-9c-4.7-7.1-10.5-10.8-13.9-11.9c0,0-4-8.3-0.6-16C491.9,451.2,498.9,451.1,498.9,451.1z"/>
<path class="st1" d="M345.9,629.1c0,0,25.7,45.3,56.5,59.5c30.7,14.1,64.8,29.1,98,13.3s50.7-66.4,50.7-66.4s-42.4,18.3-63.1,10
	c-20.8-8.3-68.1-25.1-99.7-14.2C356.7,642,345.9,629.1,345.9,629.1z"/>
<path class="st2" d="M493.8,704.5"/>
<path class="st3" d="M386.1,506.5c0,0,15.2,19,19.4,30.6c0,0,5.9,3.4,8.2-6C413.7,531.1,399.6,512.9,386.1,506.5z"/>
<path class="st4" d="M413.7,531.1c0,0,34,7,45.8,15.2c11.7,8.2,27,12.9,27,12.9l-1.2-14.1c0,0-0.2-13.1-33.3-20.4
	c-33.1-7.3-65.9-18.4-65.9-18.4S400,513.1,413.7,531.1z"/>
<path class="st5" d="M485.3,545.2l24-1.1c0,0,7.2,0.3,14.6,8c7.5,7.7,38.7,20.3,40.2,26.8c0,0-11.6,6-45.9-12.5
	c0,0-17.9-5.5-31.7-7.2L485.3,545.2z"/>
<path class="st6" d="M405.5,537.1c0,0,15.4,32.9,30.8,38.6c0,0,6.6-20,25.8-27.6c0,0-9-9.2-48.4-17
	C413.7,531.1,411.7,539.9,405.5,537.1z"/>
<path class="st7" d="M436.3,575.7c0,0,40.3,31.7,105.8,19.9c0,0,2.1,0.1,5.3-5.7s2.2-3.5,2.2-3.5s3.2-2.8-11.9-10.9
	c0,0-14.9-6.1-19.5-9c0,0-20.2-5.9-31.7-7.2c0,0-16.4-5.5-24.4-11.2C462.1,548.1,444,554.3,436.3,575.7z"/>
<path class="st8" d="M448,563.7c0,0,8.8,18.3,14.1,20.2c5.3,1.9,16.2,12,36.8,0C498.9,583.8,495,573.8,448,563.7z"/>
<path class="st9" d="M459.2,526.6c0,0,22.5,6.7,25.8,17l0.3,1.6l24-1.1c0,0,5.1,0.8,6.4,1.9c0,0-0.2-7.1-5.4-8.2
	c-5.1-1-16.3,3.9-25.6-3.6s-8.4-13.9-11.5-13.4C470.1,521.4,459,523.1,459.2,526.6z"/>
<path class="st10" d="M511.2,598.2c0,0,4.1,39.4-23.3,47.1c0,0,17.3,9.3,63.1-10c45.9-19.2,46.6-42.5,46.6-42.5S587.5,575.7,564,579
	c0,0,16.4,0,16.8,6.5c0,0-9.4-3.5-24.5,5.2C541.2,599.5,511.2,598.2,511.2,598.2z"/>
<path class="st10" d="M551,635.4c0,0,61.2,30.2,129-48.6c0,0-9.4,31.7-48,61.4c0,0-39.3,32.9-148.1,59.1
	C483.9,707.3,526.9,704.4,551,635.4z"/>
<path class="st11" d="M551,635.4c0,0,40.7-15.7,46.6-42.5c0,0,8.6-32.8-30.3-86.4c0,0,11.8-8,10.7-40.8c0,0,63.4,10.2,85.4,38.4
	c22,28.1,16.5,82.8,16.5,82.8S620.1,663.4,551,635.4z"/>
<path class="st12" d="M474.6,478.9c0,0-19-3.2-33.1-9.5c-14-6.3-51.6-6.8-64.3,10.4c-12.7,17.2,8.9,57.3,8.9,57.3s10.9-2,19.4,0
	c0,0-12.3-23.9-19.4-30.6c0,0,43.2,13.9,49.5,14.5c6.3,0.6,23.5,5.7,23.5,5.7s-1-3.6,14-5.7C473.2,520.9,479.4,508.8,474.6,478.9z"
	/>
<path class="st13" d="M567.4,506.5c0,0-18.9,7.7-30.6-4.6c0,0-6.8,33.9-26.5,36c0,0,5.7,1,5.4,8.2c0,0,5.7,3.2,8.2,6.1
	c2.5,2.9,36.8,19.1,40.2,26.8c0,0,22.3-4,33.6,13.8C597.7,592.9,605.3,557.1,567.4,506.5z"/>
<path class="st14" d="M587.1,672.7c0,0-44,62.4-14.3,113.3c0,0-26.9,12-57.2,16.3c0,0,16.4-78.4,36.9-115.2
	C552.5,687.2,582.7,676.4,587.1,672.7z"/>
<path class="st15" d="M452.7,706.3c0,0,71,23.2,63.5,97.1c0,0,19.8-87,36.9-117C553.1,686.4,504.5,707.2,452.7,706.3z"/>
<path class="st10" d="M386.1,679.1c0,0,32.2,22,68.9,28.6s68.8,61.2,61.1,95.7c0,0-93.9,17.5-138.5,2.5
	C377.7,805.9,410.3,724.1,386.1,679.1z"/>
<path class="st16" d="M386.1,679.1c0,0,27.5,34.7-8.4,126.8c0,0-15.1-48.8-1.6-87.1S386.1,679.1,386.1,679.1z"/>
<path class="st17" d="M370.9,767.3c0,0-1.3-30.7,5.2-48.5c6.5-17.7,11-32.5,10-39.7c0,0-25.3-23.9-40.2-50c0,0,1.5,40.4,0.8,57.4
	C346,703.4,359,743.9,370.9,767.3z"/>
<path class="st18" d="M316.6,457.6c0,0-27,24.3-18.6,89.7c8.4,65.5,48.3,131.3,49.6,150.8c0,0,1.2-57.1-1.7-69.1
	C345.9,629.1,290.3,538.6,316.6,457.6z"/>
<path class="st19" d="M473.2,520.9c0,0,10.3-0.7,17.4,3.7s15.5,0.4,15.5,0.4s9.1,5.9,2.4,12.7c0,0-5,0.3-7.1,0.7
	s-13.5,2.4-22.4-10.1c0,0-2.2-3.2-2.7-4.5C475.8,522.6,475.1,521,473.2,520.9z"/>
<path class="st11" d="M474.6,478.9c0,0,12-9.1,21.8,0.4s9.1,15.6,17.6,16.6s16.2-3.7,19.3-0.7c3,3,3.4,6.8,3.4,6.8
	s-7.3,37.3-28.3,35.8c0,0,6.8-6.1-2.4-12.7c0,0-7.9,4.7-15.5-0.4c-7.6-5.1-17.4-3.7-17.4-3.7S479.5,502.8,474.6,478.9z"/>
<path class="st20" d="M479,436.8c0,0,14.2,7.1,18.6,12.9s19.4,7.5,32.6,7.9c13.1,0.4,24.1,15.9,24.1,15.9s11.8-33.1,7.9-48.1
	c-3.9-15.1-40.8-18.7-40.8-18.7S518.7,416.6,479,436.8z"/>
<path class="st15" d="M554.3,473.6c0,0,22,14.5,13.1,32.9c0,0,12.4-8,10.7-40.8c0,0-2.6-8.1-3-24.3c-0.4-16.2,3.9-31.1-34.2-30.8
	c0,0,22.7,5.6,22.1,18.1C562.4,441.2,563.2,447.1,554.3,473.6z"/>
<path class="st21" d="M460.1,475.7c0,0-7.8-9.2-6.6-20.1c0,0,4.8-8,9.5-10.2C463,445.4,456.6,460.4,460.1,475.7z"/>
<path class="st22" d="M554.3,473.6c0,0-10.4,14.9-19.4,14.9c0,0,26.9,5.2,20.2,20.4c0,0,6.2,1.3,12.3-2.4
	C567.4,506.5,577.8,490.7,554.3,473.6z"/>
<path class="st9" d="M506.9,459.6c0,0-4.8,6.5,0.7,11.6c0,0,12.2,2.6,17.8,6.7s15.4,2.2,15.5-5.9C540.9,472,530.6,460.7,506.9,459.6
	z"/>
<path class="st22" d="M479,436.8c0,0,13.7,6.7,17.8,11.9l2.1,2.4c0,0-17.4,3-9.8,23.9c0,0-19.6-13.8-30.1-8.8c0,0,0.1-12.7,4-20.8
	C463,445.4,468.2,441.2,479,436.8z"/>
<path class="st23" d="M459,466.2c0,0-0.1,8.1,1.1,9.5l14.5,3.2c0,0,3.9-4.3,14.5-3.9C489.1,474.9,470.4,460.7,459,466.2z"/>
<path class="st24" d="M529.2,356c0,0,6.1,27.9-7.7,50.8c0,0,15.2,1.5,17.5,4.3c0,0,19.6-15.2,22.9-23.1
	C565.1,380.1,557.9,356.6,529.2,356z"/>
<path class="st25" d="M378.7,805.9c0,0,88.1,21.3,195.2-19.9l6.6,9.6c0,0-5.1,46.2-1.5,60c0,0-123.5,38.5-190.3,19.2
	C388.7,874.8,385.1,819.9,378.7,805.9z"/>
<path class="st26" d="M672.7,602.5c0,0,16.8,5.2,27.6-19.7c10.7-24.9,7.4-22.3,20.9-45.7s8.2-48.5,8.2-48.5s-26.2,37.8-26.8,50.2
	C702.1,551.1,672.7,602.5,672.7,602.5z"/>
<path class="st27" d="M681.8,466.3c0,0,31,31.4,21.7,64.8c0,0,18.8-33.7,25.8-42.2c0,0,11.5-61.7,14.8-72.9c0,0-9.7-30.8-12.8-35.1
	C731.4,381,724.5,474.2,681.8,466.3z"/>
<path class="st28" d="M597.7,412.5c0,0,47.1,51.2,84.1,53.2c0,0,54.9,46.1-1.7,121.1c0,0,12.7-85.7-49.6-105.7
	c0,0-25.7-10.9-52.3-15.4c0,0-2.6-10.8-2.3-13.4C575.8,452.3,599.3,453.5,597.7,412.5z"/>
<path class="st29" d="M597.7,412.5c0,0-12.5-13.3-4.4-38.4c0,0-14.8-3.3-18.4-5.1c0,0-14.9,27.3-35.9,42c0,0,29.5-2.6,33.9,10.1
	c4.4,12.8,1.6,26.4,2.9,31.1C575.8,452.3,599.9,453.4,597.7,412.5z"/>
<path class="st30" d="M529.2,356c0,0,34.1,2,33.8,30.9c0,0,11.1-13.5,11.9-17.9l18.4,5.1c0,0,5.7-8,16.1-7.5c0,0-57.8-15-66.6-23.9
	c-8.9-8.9-21.8-7.5-21.8-7.5S530.4,346.8,529.2,356z"/>
<path class="st31" d="M518.4,335.2c0,0,6.5,35.8-33.1,46.6c0,0,6.9,25.9-7,42.9c0,0,43.1-35.4,50.9-68.7
	C529.2,356,528.8,340.7,518.4,335.2z"/>
<path class="st28" d="M390.9,367.2c0,0,7.9-13.8,9.5-20.1c0,0,29,25.3,84.9,35.3c0,0,7.8,25.6-7,42.9
	C478.2,425.3,410.5,364.6,390.9,367.2z"/>
<path class="st27" d="M478.2,424.7c0,0,40.2-32.8,50.9-68.7c0,0,10.7,46.2-24.8,67.1s-41,17.9-50.9,32.5
	C453.5,455.5,457.4,437.1,478.2,424.7z"/>
<path class="st15" d="M605.1,405c0,0,7.4,1.2,9,7.6c1.5,6.4,30.3,30.2,68.1,32c0,0,12,12.9,22,14.6c0,0-27.4,35.1-106.4-46.6
	C597.7,412.5,604,411.6,605.1,405z"/>
<path class="st32" d="M682.1,444.5c0,0,11.2,14.5,22,14.6c0,0,21.6-19.4,27.2-79.5c0,0-23,32.9-32.4,32.5c0,0,9.1,8.7,11.6,14.5
	C713.1,432.4,701.8,442.2,682.1,444.5z"/>
<path class="st11" d="M645.5,359.1c0,0,13.5,13.6,12.9,24.4c0,0,23.9,9.2,40.6,28.7c0,0,9.5,1.5,32.4-32.5c0,0-12.7-10-45.3-14.3
	C653.4,361,645.5,359.1,645.5,359.1z"/>
<path class="st33" d="M645.5,359.1c0,0,13.3,12.7,12.9,24.4c0,0-53-10.5-58.8,13c0,0,0,5.6,5.5,8.5c0,0-0.3,6.2-7.4,7.6
	c0,0-13.2-12-4.4-38.4c0,0,9.8-17.5,26.7-19.1c0,0,20.7,3.5,26.4,4"/>
<path class="st34" d="M601.2,392.4c0,0,67.1-7.5,84.7,51.6c0,0,16-2.5,22.3-10.1c0,0,3.8-3.5,2.3-7.2s-10.4-13.1-11.6-14.5
	c-1.2-1.4-20.4-22.6-40.6-28.7C638.1,377.4,605.3,379.9,601.2,392.4z"/>
<path class="st35" d="M679.2,428c0,0,4.2,11.3,15,10.4c10.9-1,9.7-4.5,9.7-4.5s-6.2,0-6.2-2.1s2.7-4.1,2.3-6s-11.1-16.7-14.6-17.5
	c0,0-3.5,5.8-7.4,5.8s-6.4-4.3-6.4-4.3s4.9-2.1,5.1-5.2c0,0-6.8,3.7-7.4,1.7c0,0,2.9,0,2.7-5.6c0,0-5.4,5.8-8,5.6
	c-2.5-0.2-9.3-4.1-9.3-4.1s3.5-3.7,3.1-7.4c0,0-6,5.6-9.5,3.7s-33.8-10.6-47.2-6.1C601.2,392.4,652.9,385.2,679.2,428z"/>
<path class="st36" d="M601.2,392.4c0,0-6.1,6.4,3.8,12.5c0,0,7.5,0.7,9.5,8.8c0,0,4.2-3.6,8.2-3.2c0,0-7.9-8.9-14.5-8.9
	s-2.4-7.7-0.2-7.5s6.4-2.1,6.4-2.1S603.1,391.1,601.2,392.4z"/>
<path class="st37" d="M666.5,412.5c0,0-3.6,14-14,14.3c0,0,11.7,3.1,27.4,2.9C680,429.7,673.4,417,666.5,412.5z"/>
<path class="st38" d="M635.5,395.4c0,0-12.4,2.5-9.8,16.7c0,0,8.1,9.5,26.9,14.7c0,0,9.1,1,14-14.3
	C666.5,412.5,658.6,403.1,635.5,395.4z"/>
<ellipse class="st39" cx="645.3" cy="409.5" rx="6.9" ry="6.8"/>
<path class="st40" d="M642.2,407.9c0,0-0.3,4.3,2.4,3.9s3.3-1,3.1-4.8C647.5,403.4,641.7,403.8,642.2,407.9z"/>
<path class="st37" d="M635.5,395.4c0,0-11.8,2.1-9.8,16.7l-2.9-1.6c0,0-7.8-9.2-16.3-9.1c0,0-3-0.6-1.2-4.8c0,0,1.3-2.6,2.7-2.5
	s1.9,0,6.4-2.1C614.4,392.1,625.4,392.3,635.5,395.4z"/>
<path class="st34" d="M614.6,413.8c0,0,26.5,32.9,71.3,30.2c0,0-3.3-11.4-6-14.3c0,0-34.7,1.9-54.3-17.5l-2.9-1.6
	C622.8,410.6,620.3,409.6,614.6,413.8z"/>
<path class="st35" d="M622.8,410.6c5.6,1.8,14.9,19.2,57.2,19.1c0,0,3.4,4.6,4.8,10.7c0,0-3-4.8-8.5-7.4c-2.6-0.3-9.2-2-7,6.1
	c0,0-4.1-9.1-5.4-8c-1.3,1.2-2.2,2.5-1.6,5.9c-1.1-1.9-3.9-10.9-5.7-2.3c-3.2-7.1-4.9-7-7.5-0.4c0,0,0.4-7.3-1.7-7.1
	s-4.8-2.9-6.1-1.5c-1.4,1.5-3.1,2.4-3.2,4.1c0,0,0.5-6-1.7-7.2c-2.1-1.3-5.5,3-7,2.6c0,0,3.3-3.4,2.9-4.9c-0.4-1.5-4.3-2.8-4.3-2.8
	s-3.1,0.4-3.1,3.2C622.8,417.4,626.4,414,622.8,410.6z"/>
<path class="st38" d="M446.2,333.1c0,0-5.3,7.1,0.5,15.6c5.8,8.4,31,7.5,31,7.5s7.6-4.1,7.2-12.7C485,343.5,465.3,333.3,446.2,333.1
	z"/>
<ellipse class="st39" cx="465.3" cy="341.5" rx="6.7" ry="6.2"/>
<path class="st40" d="M463.6,340c0,0-0.2,3.9,2,3.5s2.7-0.9,2.6-4.3S463.2,336.2,463.6,340z"/>
<path class="st37" d="M485,343.5c0,0,0.8,7.9-7.2,12.7c0,0,18.3,0.8,25.9-1.5C503.7,354.7,490.7,345.7,485,343.5z"/>
<path class="st41" d="M416.9,313.4c0,0-8,20.7-10.2,24.5c0,0,57.9-19.1,99.4,20.4c0,0,3.3-35.4-46.5-50
	C459.6,308.3,440,303.3,416.9,313.4z"/>
<path class="st37" d="M418.8,335.5c0,0,17.4,10.2,31,15.9c0,0-10.1-7.4-3.5-18.3C446.2,333.1,422.8,332.4,418.8,335.5z"/>
<path class="st35" d="M418.8,335.5c0,0-8.4-2.9-8.6-6.4c0,0,9.6-0.7,10.4-1.5c0,0,2.2,1.5,3.2,1.4s1.5-4,1.5-4s9.2,4.7,13.9,3.4
	c4.7-1.4,4.2-4,4.2-4s2.7,4.6,5.2,4.6s4.3-2.2,4.3-2.2s2.4,5.1,5.6,4.5s4.7-4.5,4.7-4.5s2,7.8,4.9,7.2c2.8-0.6,2.8-3.4,2.8-3.4
	s14,3.8,18.7,9.5c0,0,1.1,1.4,1.1,3.1s7.5,3.7,12.8,11.4C503.7,354.7,467.4,324.5,418.8,335.5z"/>
<path class="st24" d="M400.4,347.1c0,0,4.6-6.7,6.3-9.2c0,0,8.6-2.9,12.1-2.3c0,0,32.9,33.3,83.5,19.3l3.8,3.4
	c0,0,0.1,10.6-4.7,16.3c0,0-9.8,6.2-16.2,7.7C485.3,382.3,438.1,375.5,400.4,347.1z"/>
<path class="st35" d="M418.8,335.5c0,0-4.5-0.5-8.6,2.1c0,0,6.6-0.6,10.1,1.3c3.6,1.9,5.2,3.3,5.2,3.3s-4.7,1.8-5.6,3.6
	c0,0,6.2-2.6,8.4-2.1c2.2,0.6,5.6,3.4,6.2,3.6c0,0-4.3,2.4-6.4,4.7c0,0,8.6-3.7,10.9-2.4s4.6,1.8,4.6,1.8s-5.6,3.2-8.2,9.4
	c0,0,8.4-7.7,16.8-6.4c0,0,4.4,1.9,6.4,1.9c0,0-3.2,2.2-4,7.1c0,0,4.5-5.6,8.2-5.4s8.4,1.3,10.5,1.3c0,0-1.3,2.6-1.1,5.6
	c0,0,2-6.6,7-6.6s18.7-2.5,18.7-2.5s-17.1,1-30,0.2C455,355.1,443.8,349.6,418.8,335.5z"/>
<path class="st33" d="M463.6,309.3c0,0,35.1,9.1,42.4,42.1c0,0,1.7,15.5-4.5,23.2c0,0,20.3-11.6,17-39.4c-3.4-27.8-20-36.9-20-36.9
	s-29.2-19.8-30.2-21.1c0,0-31.8,14.5-44.1,11.9c0,0-6.3,23-7.2,24.2c-0.9,1.3,0.9-1.3,0.9-1.3l-0.9,1.3
	C416.9,313.4,439.8,302.4,463.6,309.3z"/>
<path class="st11" d="M424.2,289.2c0,0,9.6-29.3,11-30.1c0,0,18.4,2.3,33.1,18.2C468.2,277.2,441.8,291,424.2,289.2z"/>
<path class="st36" d="M497.1,339.6c0,0,8.8,13.1,3.6,17.5c-5.2,4.3-5.6,4.8-4.2,6.6c1.4,1.8,9.2-3.9,8.1-10.4
	C503.5,346.8,497.1,339.6,497.1,339.6z"/>
<path class="st42" d="M503.7,302.5c0,0,54.5,30.7,66,31c0,0,5.5,20.2,13.9,25.5c0,0-25.9-7.9-35.9-13s-11.4-12.4-29.2-10.8
	C518.4,335.2,517.4,315.3,503.7,302.5z"/>
<path class="st41" d="M756.1,222.6l20.3,11.2c0,0-9.4,33.1-7,40.9c2.4,7.8,15.1,35.9-0.5,64.3s-24.8,77.1-24.8,77.1l-4-12.3
	c0,0,4.2-14.1,1.2-22.8c-3-8.7,13.8-43.2,16.5-59s-5.6-41.7-3.5-57.5C756.3,248.6,758.5,228.1,756.1,222.6z"/>
<path class="st43" d="M756.3,222.6c0,0,3.3,10-1.8,41.8c0,0-1.1,10.5,1.9,27.8c3,17.2,5.1,26.4-4.6,50.7c0,0-11.4,28.6-10.9,36.7
	c0,0-1.8-18.4-18.3-30.7c0,0-4.2-5.6-35.2-10.4c0,0,17.4-15.5,17.7-37.4s-4.5-90-58.1-134.8c0,0,14.5-0.3,25.5,8
	C683.3,182.7,746.9,222.7,756.3,222.6z"/>
<path class="st44" d="M470.5,246.5c0,0,21.8,4.4,46.7-23.7c0,0,51-23.7,87.2-9.8s65.6,25,100.1,68.6c0,0,7.4,36.1-16.8,57l-13.9-2.2
	L637.4,325c0,0,2-10.6,4.8-15.2c0,0-87.7-17.5-107.8-35.7l-5.9,6.8C528.4,280.8,483.2,251.7,470.5,246.5z"/>
<path class="st45" d="M495.5,166.4c0,0,19.8-45,68.9-61.7c0,0,28-32.4,60.9-35.2c0,0,59.7-36.9,99.4,17.3c0,0,87.1,35.4,71,107.3
	c0,0,30.8,29,30.1,67.2c0,0-48.2-46.2-75.7-56.3s-21.7-47.5-69.4-52.9c-47.7-5.4-104-15.1-104-15.1S542.1,135.2,495.5,166.4z"/>
<path class="st46" d="M833,764.3c0,0,67.2,106.7,50.3,294.4c-17,187.7,0,247.8,0,247.8H730.4C730.4,1306.5,858.4,1042.5,833,764.3z"
	/>
<path class="st47" d="M733.9,1253.4c0,0,23.4-159.9,2.8-212.1c-20.6-52.2,3.2-155.6,28.9-234c0,0,15.8-69.3-33.6-115.5
	c0,0,7-32.9,5-66.3c0,0,13.8-76.8,24.2-102.7c10.4-25.9,8.8-74.4,17.8-107.2c0,0,4.5-27,10.5-49s17-75.5-13.1-132.8l-20.3-11.2
	l0.2-5.8l0.3-9c0,0,46.4,26,69.2,53.4c0,0,7,17.8,3.8,47.4s36.5,160.9,5.8,329.3c0,0-13.7,89.2-2.4,126.4
	C833,764.3,869.2,1088.6,733.9,1253.4z"/>
<path class="st20" d="M471.7,248.5c0,0,18.5-83.1,96.7-85.1c0,0,23.9-0.1,105.5,32.5c0,0,10.7,12.2,20.7,40.4
	c0,0-98.1-60.4-143.4-37.5C506,221.8,507.7,250.1,471.7,248.5z"/>
<path class="st34" d="M443.6,239c0,0,17.8-53.3,59.2-77.3s65.9-26.8,79.3-24s32.3,27.8,36,28.7s21.9-1.8,29.7,0c0,0,23,20.4,26.3,30
	c0,0-58-22.4-93.1-30.9s-95.5,23.1-108.4,82.9C472.5,248.5,450.9,238.4,443.6,239z"/>
<path class="st48" d="M694.6,236.3c0,0,8.8,35.1,9.8,45.3c0,0-24.2-39.9-87.1-63.6c0,0-31.7-15.4-70.5-5.3c0,0-20.8,5.7-28,9.3
	c0,0,9.9-11.6,29.1-21.4c19.3-9.8,45.9-14.4,118,20.1L694.6,236.3z"/>
<path class="st49" d="M732.1,691.9c0,0,51.6,40.2,31.9,120.4c-19.6,80.3-48.2,153-24.6,237.2c23.6,84.2-14.7,257-14.7,257
	l-170.5-1.1c0,0,29.1-143.9,75.5-212.6c0,0,24.4-48.1,11.8-88.8c0,0-5.8-66.8,18.1-108.8C683.5,853.1,756.2,768.4,732.1,691.9z"/>
<path class="st50" d="M260.9,429.3c0,0-47.4,178.8-63.9,232.2s-84.7,158.3-96.6,173s-37.9,69.8-13.9,107.6c0,0,39.6-76.9,57.4-107.1
	s106.9-159.6,112.6-329.4l2.4-3.7C258.9,501.9,253.2,492.3,260.9,429.3z"/>
<path class="st51" d="M278.3,486.9l38.3-29.2c0,0-14.1,13.5-16.3,22.8c0,0-12,24.1-13.3,52.4c-1.4,28.3,3.8,81.5,1.3,94.7
	s-7.1,91.9-54.2,174c0,0-40.3,84-49.6,98.4c-9.2,14.3-42.5,80-42.5,80s18.8-81.6,46.6-138.3c27.7-56.8,46.2-91.3,66.3-193.5
	S278.3,486.9,278.3,486.9z"/>
<path class="st52" d="M256.5,505.6l21.8-18.8c0,0,37.8-70.2,71.2-162.4c0,0,51.1-121.2,68.3-145.4s59.8-86.8,184.7-103.2
	c0,0,9.8-6.1,22.7-6.4c0,0,12.9-8.6,34.5-11.6c0,0-14.8-10.6-37.5-4.1c0,0-55.5-36-181.9,58.8S219.5,410,256.5,505.6z"/>
<path class="st50" d="M776.4,233.8c0,0,24.3,43.5,19.5,96.9s-19.5,69.5-25,138.5c0,0-3.3,42-10.5,55.7s-23.8,102.6-23.8,102.6
	s-16.2-77-15.5-90.5c0,0,12.1-16.3,8.2-48.2c0,0,12.2-66.7,14.8-72.9c2.6-6.2,6.8-45.4,24.8-77.1c0,0,16.7-22.4,0.5-64.3
	C769.5,274.7,765.3,274.4,776.4,233.8z"/>
<path class="st46" d="M316.6,457.6c0,0-29.5,28.9-16.6,102.4c0,0,44.2,120.8,47.6,138.2c0,0-39.4,147.4-36.5,219.2
	s26.9,130.4-22.4,273.6c0,0-25.8,58.3-73.5,56.9s-94.1-32.3-94.1-32.3S81.8,1074.8,142,980c0,0,89.4-170.2,110-213.6
	s43.1-140.8,35.3-199.4S301.3,471.7,316.6,457.6z"/>
<path class="st53" d="M278.3,486.9l-21.8,18.8c0,0-11.9,149.8-68.3,252.1S98.1,914.5,86.4,942.2S52,1085,113,1173.8
	c0,0-17.7-117.1,29-193.8c0,0,26.4-106.7,58.9-163.6C233.4,759.6,255.5,696.5,278.3,486.9z"/>
<path class="st47" d="M732.1,691.9c0,0,21.8,52.6-25.3,127.9s-68,83.4-65.3,184.2c0,0-32.4-39.7-34.6-59.1
	c-2.2-19.5-0.1-68.3,55.4-138.9S732.1,691.9,732.1,691.9z"/>
<path class="st46" d="M724.7,1306.5l9.2-53.1c0,0,141-164.6,99.1-489.1c0,0,77.9,121.9,45.9,350.4c0,0-16.4,131.1,4.3,191.8
	L724.7,1306.5L724.7,1306.5z"/>
<path class="st54" d="M756.6,207.8l-0.5,14.8c0,0-4.2,1.4-38.7-19.6s-43.9-27.5-45.1-28.7c-1.2-1.2-9.6-6.7-24.6-8s-27.8,1.2-29.7,0
	s-2.4-0.4-18.1-17.1c0,0-9.4-8.8-16.4-11.1c0,0,77.3,12.3,82.6,12.2s38.2,0.5,51,19.1c0,0,5.5,6.2,15,20.9
	C732.2,190.4,738.1,200.3,756.6,207.8z"/>
<path class="st11" d="M528.4,280.8l5.9-6.8c0,0,23.5,18.6,107.8,35.7c0,0-3.3,7.5-4.8,15.2c0,0-12.5-2.5-18.8,9.4
	c0,0-7.1,16.6,1.5,20.8c0,0-8.3,0.9-19.1,9.5l-18.2-5.5c0,0-10.5-8.8-13.1-25.5c0,0-4.8,3-47.8-21.1c0,0,3.8,0.6,11.4-9.9
	C540.9,292.1,536.5,287.6,528.4,280.8z"/>
<path class="st55" d="M529.2,494.2c0,0,3.5-0.7,5.7,2.9s1.5,4.2,1.9,4.9c0.4,0.7,6.7,7.9,18.3,6.9c0,0,4.9-8-5.2-14.5
	c-10.1-6.5-14-6.2-14.9-5.4C534.1,489.8,529.2,494.2,529.2,494.2z"/>
<path class="st56" d="M478.2,424.7c0,0-17.5,9.5-24.7,30.8c0,0-1.7,9.4,6.6,20.1c0,0-16.6-4.6-20-6.9s-36.1-7.9-57.6,5.9
	c-21.5,13.7,3.7,62.5,3.7,62.5s10.8-2.1,19.4,0c0,0,22.2,59.3,105.7,61.1c0,0,4.5,40.4-23.3,47.1c0,0-57.5-24.4-94.8-15.6
	c0,0-34.5,13.8-47.2-0.6c0,0-55.3-87-29.3-171.4c0,0,48.6-41.2,74.3-90.4C390.9,367.2,400.9,359,478.2,424.7z"/>
<path class="st57" d="M602.6,75.8c0,0-131.3,11.4-184.7,103.2c-53.4,91.9-112.6,266.2-139.5,307.8c0,0,115.3-70.3,145.8-197.7
	c0,0,27.9-96.2,71.3-122.8c0,0,25.4-49,68.9-61.7C564.4,104.7,579.5,86,602.6,75.8z"/>
<path class="st58" d="M537.7,575.5c0,0,14.6,7.2,11.9,10.9c-2.7,3.7-3.7,7.8-7.5,9.2c0,0,4.8,0,18.4-6.8c13.6-6.8,20.4-3.3,20.4-3.3
	s2.4-4.8-16.8-6.5C564.1,579,558.8,582.6,537.7,575.5z"/>
<path class="st59" d="M492.7,259.6c0,0,31.3,17.9,34.6,20.5s15.4,8.9,7.1,20.8c-8.2,11.9-12.5,11.5-12.5,11.5s-25.2-11.7-53.7-35.2
	C468.2,277.2,478.4,287.2,492.7,259.6z"/>
<path class="st45" d="M435.1,259c0,0,17.9,2.1,33.1,18.2c0,0,9.6,11,24.4-17.6c0,0-25.9-17.2-49.1-20.6
	C443.6,239,435.3,255.3,435.1,259z"/>
<path class="st46" d="M638.3,358c0,0,24.6-5.3,35.7-21.7c0,0,32.8,4.4,43.9,9.7c11.1,5.3,28.9,24.8,22.2,57.7
	c0,0-6.1-23.9-12.3-26.4s-11.7-7.6-43.1-12.2C653.2,360.5,638.3,358,638.3,358z"/>
<path class="st52" d="M674,336.4c0,0-30.7-8.9-34.6-10.7c-4-1.8-19.6-3-23,15.4c0,0-2.5,12.4,3.7,14s18.3,2.9,18.3,2.9
	S664.3,352,674,336.4z"/>
<path class="st60" d="M388.7,874.8c0,0,55.1,21.3,190.3-19.2c0,0,0.1,62,27.9,89.3c0,0,3.2,19.5,34.6,59.1c0,0,11.6,32.9-7,76
	l-277.4,0.5C357.1,1080.5,399.2,991.1,388.7,874.8z"/>
<path class="st61" d="M347.7,698.2l23.3,69.1c0,0,74.4,247.6-82.1,423.7c0,0,42.9-90.9,25.9-214.9
	C297.7,852,347.7,698.2,347.7,698.2z"/>
<path class="st46" d="M672.7,602.5c0,0-23,47.2-85.6,70.2c0,0-50.5,69.1-7.7,122.9c0,0-13.2,109.7,27.4,149.2
	c0,0-7.7-66.9,65.8-151.4s60.4-121.8,63.6-153.6c3.3-31.8-15.2-75.6-15.2-102.6c0,0-13.3,23-16.5,31.8S697.1,606.2,672.7,602.5z"/>
</svg>
