<?xml version="1.0" encoding="utf-8"?>
<!-- Generator: Adobe Illustrator 24.2.1, SVG Export Plug-In . SVG Version: 6.00 Build 0)  -->
<svg version="1.1" id="Layer_1" xmlns="http://www.w3.org/2000/svg" xmlns:xlink="http://www.w3.org/1999/xlink" x="0px" y="0px"
	 viewBox="0 0 300 300" style="enable-background:new 0 0 300 300;" xml:space="preserve">
<style type="text/css">
	.st0{fill:#787D5C;}
</style>
<path class="st0" d="M228.3,93.4l-49.9-49.9c-1.7-1.7-4.1-2.7-6.5-2.7H69.6c-7.6,0-13.8,6.2-13.8,13.8V239c0,7.6,6.2,13.8,13.8,13.8
	h147.5c7.6,0,13.8-6.2,13.8-13.8V99.9C231,97.5,230,95.1,228.3,93.4z M180.3,58.4l33.1,33.1H185c-2.5,0-4.6-2.1-4.6-4.6L180.3,58.4
	L180.3,58.4z M217.2,243.6H69.6c-2.5,0-4.6-2.1-4.6-4.6V54.6c0-2.5,2.1-4.6,4.6-4.6H171v36.9c0,7.6,6.2,13.8,13.8,13.8h36.9V239
	C221.8,241.6,219.7,243.6,217.2,243.6z M148,156H78.9v-46.1H148V156L148,156z M88.1,146.8h50.7v-27.7H88.1V146.8z M78.9,63.8h78.4
	V73H78.9V63.8z M78.9,82.3h78.4v9.2H78.9V82.3z M161.9,109.9H208v9.2h-46.1V109.9z M161.9,128.4H208v9.2h-46.1V128.4z M161.9,146.8
	H208v9.2h-46.1V146.8z M78.9,165.3H208v9.2H78.9V165.3z M78.9,183.7H208v9.2H78.9V183.7z M78.9,202.1H208v9.2H78.9V202.1z
	 M78.9,220.6H208v9.2H78.9V220.6z"/>
</svg>
