<svg id="Layer_1" data-name="Layer 1" xmlns="http://www.w3.org/2000/svg" viewBox="0 0 300 300"><defs><style>.cls-1{fill:#787d5c;}</style></defs><path class="cls-1" d="M228.3,93.4,178.4,43.5a9.33,9.33,0,0,0-6.5-2.7H69.6A13.83,13.83,0,0,0,55.8,54.6V239a13.83,13.83,0,0,0,13.8,13.8H217.1A13.83,13.83,0,0,0,230.9,239V99.9A8.82,8.82,0,0,0,228.3,93.4Zm-48-35,33.1,33.1H185a4.65,4.65,0,0,1-4.6-4.6l-.1-28.5Zm36.9,185.2H69.6A4.65,4.65,0,0,1,65,239V54.6A4.65,4.65,0,0,1,69.6,50H171V86.9a13.83,13.83,0,0,0,13.8,13.8h36.9V239A4.44,4.44,0,0,1,217.2,243.6Z"/><path class="cls-1" d="M148,156H78.9V109.9H148V156Zm-59.9-9.2h50.7V119.1H88.1Z"/><rect class="cls-1" x="78.9" y="63.8" width="78.4" height="9.2"/><rect class="cls-1" x="78.9" y="82.3" width="78.4" height="9.2"/><rect class="cls-1" x="161.9" y="109.9" width="46.1" height="9.2"/><rect class="cls-1" x="161.9" y="128.4" width="46.1" height="9.2"/><rect class="cls-1" x="161.9" y="146.8" width="46.1" height="9.2"/><rect class="cls-1" x="78.9" y="165.3" width="129.1" height="9.2"/><rect class="cls-1" x="78.9" y="183.7" width="129.1" height="9.2"/><rect class="cls-1" x="78.9" y="202.1" width="129.1" height="9.2"/><rect class="cls-1" x="78.9" y="220.6" width="129.1" height="9.2"/></svg>