<?xml version="1.0" encoding="utf-8"?>
<!-- Generator: Adobe Illustrator 24.2.1, SVG Export Plug-In . SVG Version: 6.00 Build 0)  -->
<svg version="1.1" id="Layer_1" xmlns="http://www.w3.org/2000/svg" xmlns:xlink="http://www.w3.org/1999/xlink" x="0px" y="0px"
	 viewBox="0 0 300 300" style="enable-background:new 0 0 300 300;" xml:space="preserve">
<style type="text/css">
	.st0{fill:#1F2213;}
	.st1{fill:#787D5C;}
</style>
<path class="st0" d="M228.3,93.4l-49.9-49.9c-1.7-1.7-4.1-2.7-6.5-2.7H69.6c-7.6,0-13.8,6.2-13.8,13.8V239c0,7.6,6.2,13.8,13.8,13.8
	h147.5c7.6,0,13.8-6.2,13.8-13.8V99.9C231,97.5,230,95.1,228.3,93.4z M180.3,58.4l33.1,33.1H185c-2.5,0-4.6-2.1-4.6-4.6L180.3,58.4
	L180.3,58.4z M217.2,243.6H69.6c-2.5,0-4.6-2.1-4.6-4.6V54.6c0-2.5,2.1-4.6,4.6-4.6H171v36.9c0,7.6,6.2,13.8,13.8,13.8h36.9V239
	C221.8,241.6,219.7,243.6,217.2,243.6z"/>
<g>
	<path class="st1" d="M148,156H78.9v-46.1H148V156L148,156z M88.1,146.8h50.7v-27.7H88.1V146.8z"/>
	<rect x="78.9" y="63.8" class="st1" width="78.4" height="9.2"/>
	<rect x="78.9" y="82.3" class="st1" width="78.4" height="9.2"/>
	<rect x="161.9" y="109.9" class="st1" width="46.1" height="9.2"/>
	<rect x="161.9" y="128.4" class="st1" width="46.1" height="9.2"/>
	<rect x="161.9" y="146.8" class="st1" width="46.1" height="9.2"/>
	<rect x="78.9" y="165.3" class="st1" width="129.1" height="9.2"/>
	<rect x="78.9" y="183.7" class="st1" width="129.1" height="9.2"/>
	<rect x="78.9" y="202.1" class="st1" width="129.1" height="9.2"/>
	<rect x="78.9" y="220.6" class="st1" width="129.1" height="9.2"/>
</g>
</svg>
